<?xml version="1.0" encoding="UTF-8"?>
<svg version="1.1" xmlns="http://www.w3.org/2000/svg" width="500" height="500">
<path d="M0 0 C3.49093716 0.74050182 5.08755999 2.70354554 7.19140625 5.46484375 C12.79098364 16.66399853 3.03749073 37.54870101 -0.359375 48.66796875 C-3.75072696 59.80877011 -6.48800844 71.05529929 -8.80859375 82.46484375 C-8.14859375 82.46484375 -7.48859375 82.46484375 -6.80859375 82.46484375 C-6.41800781 81.43810547 -6.41800781 81.43810547 -6.01953125 80.390625 C-4.64013626 77.05782871 -3.05943786 73.87208306 -1.43359375 70.65234375 C-0.96397217 69.71660522 -0.96397217 69.71660522 -0.48486328 68.76196289 C0.7807164 66.24228495 2.05361995 63.72755629 3.36328125 61.23046875 C5.38317713 57.35624223 6.98027273 53.43738245 8.50390625 49.33984375 C10.38563335 44.35880142 12.46898154 39.55149387 14.81640625 34.77734375 C15.67105469 33.03904297 15.67105469 33.03904297 16.54296875 31.265625 C18.19140625 28.46484375 18.19140625 28.46484375 21.19140625 26.46484375 C23.69140625 26.02734375 23.69140625 26.02734375 26.19140625 26.46484375 C27.98046875 28.57421875 27.98046875 28.57421875 29.19140625 31.46484375 C28.55859375 34.5390625 28.55859375 34.5390625 27.06640625 38.15234375 C26.7936084 38.82442871 26.52081055 39.49651367 26.23974609 40.18896484 C25.60810382 41.73188447 24.9654996 43.27034308 24.31445312 44.80517578 C23.05246456 47.79389391 21.83311982 50.79852879 20.61328125 53.8046875 C15.83245844 65.47084253 11.00533913 76.82884277 4.19140625 87.46484375 C3.74410156 88.20605469 3.29679687 88.94726562 2.8359375 89.7109375 C-0.08609735 94.25947719 -2.93364829 96.36357416 -7.80859375 98.46484375 C-11.43359375 99.02734375 -11.43359375 99.02734375 -14.80859375 98.46484375 C-17.43875536 96.29210155 -19.28196269 94.51810587 -20.80859375 91.46484375 C-22.21789769 76.14732714 -17.81048564 61.24319185 -13.46826172 46.70800781 C-11.95333071 41.55656959 -10.51208665 36.38387115 -9.05859375 31.21484375 C-8.74043701 30.09384277 -8.42228027 28.9728418 -8.09448242 27.81787109 C-7.79904541 26.76809082 -7.5036084 25.71831055 -7.19921875 24.63671875 C-6.93141602 23.68893555 -6.66361328 22.74115234 -6.38769531 21.76464844 C-5.72719963 19.53686638 -5.72719963 19.53686638 -5.80859375 17.46484375 C-9.75024257 22.92251135 -12.96456552 28.55243992 -15.91796875 34.59936523 C-18.47659807 39.83361747 -21.15244162 44.99947885 -23.87109375 50.15234375 C-24.29793457 50.96147217 -24.72477539 51.77060059 -25.16455078 52.60424805 C-28.32845276 58.58586666 -31.53470823 64.54257117 -34.80859375 70.46484375 C-35.46859375 70.46484375 -36.12859375 70.46484375 -36.80859375 70.46484375 C-36.80859375 71.12484375 -36.80859375 71.78484375 -36.80859375 72.46484375 C-37.46859375 72.46484375 -38.12859375 72.46484375 -38.80859375 72.46484375 C-38.80859375 73.12484375 -38.80859375 73.78484375 -38.80859375 74.46484375 C-42.12109375 74.71484375 -42.12109375 74.71484375 -45.80859375 74.46484375 C-48.00556346 72.31329834 -48.74308036 70.958331 -49.14916992 67.89941406 C-49.13345947 66.95678711 -49.11774902 66.01416016 -49.1015625 65.04296875 C-49.09189453 64.01816406 -49.08222656 62.99335938 -49.07226562 61.9375 C-49.04712891 60.87402344 -49.02199219 59.81054688 -48.99609375 58.71484375 C-48.98255859 57.63589844 -48.96902344 56.55695313 -48.95507812 55.4453125 C-48.91975959 52.78464955 -48.87043574 50.12500079 -48.80859375 47.46484375 C-49.30488281 48.49222656 -49.80117187 49.51960938 -50.3125 50.578125 C-58.94285036 68.25773326 -58.94285036 68.25773326 -63.80859375 74.46484375 C-64.46859375 74.46484375 -65.12859375 74.46484375 -65.80859375 74.46484375 C-65.80859375 75.12484375 -65.80859375 75.78484375 -65.80859375 76.46484375 C-69.31047328 78.7994301 -70.68887422 79.13745102 -74.80859375 78.46484375 C-79.85349547 73.13764608 -79.39014643 67.56549554 -79.24609375 60.52734375 C-79.23360596 59.41520508 -79.22111816 58.30306641 -79.20825195 57.15722656 C-78.7505703 35.6571233 -78.7505703 35.6571233 -72.80859375 27.46484375 C-69.87109375 26.40234375 -69.87109375 26.40234375 -66.80859375 26.46484375 C-64.43359375 27.96484375 -64.43359375 27.96484375 -62.80859375 30.46484375 C-62.47920161 35.76146939 -63.24222479 40.56553056 -64.30859375 45.71484375 C-65.42389319 51.04435475 -65.42389319 51.04435475 -65.80859375 56.46484375 C-64.48859375 54.15484375 -63.16859375 51.84484375 -61.80859375 49.46484375 C-61.14859375 49.46484375 -60.48859375 49.46484375 -59.80859375 49.46484375 C-59.67735107 48.87928711 -59.5461084 48.29373047 -59.41088867 47.69042969 C-57.25388785 39.71993133 -51.39540386 26.64253528 -44.80859375 21.46484375 C-41.65114529 20.506552 -40.19871424 20.8086914 -36.80859375 21.46484375 C-34.30859375 23.02734375 -34.30859375 23.02734375 -32.80859375 25.46484375 C-32.49872707 31.6395041 -33.49025397 37.47515228 -34.46875 43.55078125 C-34.58089844 44.51242188 -34.69304687 45.4740625 -34.80859375 46.46484375 C-34.47859375 46.79484375 -34.14859375 47.12484375 -33.80859375 47.46484375 C-33.67517578 46.46324219 -33.67517578 46.46324219 -33.5390625 45.44140625 C-32.60161417 41.62142965 -30.91277748 38.31381117 -29.12109375 34.83984375 C-28.58307129 33.78132202 -28.58307129 33.78132202 -28.03417969 32.70141602 C-23.8444449 24.50009412 -19.41562405 16.43855004 -14.80859375 8.46484375 C-14.14859375 8.46484375 -13.48859375 8.46484375 -12.80859375 8.46484375 C-12.56109375 7.88734375 -12.31359375 7.30984375 -12.05859375 6.71484375 C-8.97114683 1.15743929 -6.2562038 -0.25766902 0 0 Z " fill="#1D8795" transform="translate(137.80859375,196.53515625)"/>
<path d="M0 0 C0 0.66 0 1.32 0 2 C0.8971875 2.37125 0.8971875 2.37125 1.8125 2.75 C5.35758004 4.77576002 6.72664719 7.17994156 8 11 C8.53476918 16.97501722 8.51280722 21.9124861 5 27 C1.95200486 29.88757434 -0.9208504 31.93165129 -5 33 C-9.40226584 32.69106906 -12.01379246 31.99310377 -16 30 C-16.33 33.96 -16.66 37.92 -17 42 C-19.31 42 -21.62 42 -24 42 C-24 28.14 -24 14.28 -24 0 C-21.69 0 -19.38 0 -17 0 C-17 0.66 -17 1.32 -17 2 C-16.01 1.34 -15.02 0.68 -14 0 C-9.0477251 -1.26686102 -4.97431147 -0.77187592 0 0 Z M-15 7 C-15 7.66 -15 8.32 -15 9 C-15.66 9 -16.32 9 -17 9 C-17.34214251 13.38449286 -17.51912336 17.62530417 -17 22 C-13.96559746 25.25114558 -12.23077575 25.85230691 -7.875 26.375 C-4.1241426 25.92172823 -4.1241426 25.92172823 -1 24 C1.88046269 18.93435871 2.27028131 15.65852585 1 10 C0.34 10 -0.32 10 -1 10 C-1.33 9.01 -1.66 8.02 -2 7 C-6.5511659 4.01820165 -10.25538956 4.89128425 -15 7 Z " fill="#D3D3D3" transform="translate(355,227)"/>
<path d="M0 0 C1.22589844 -0.00515625 2.45179688 -0.0103125 3.71484375 -0.015625 C6.79991052 0.22916443 8.48596294 0.62271344 11.0625 2.25 C11.0625 2.91 11.0625 3.57 11.0625 4.25 C11.7225 4.25 12.3825 4.25 13.0625 4.25 C15.29987047 9.65697863 16.0625 12.1464808 16.0625 18.25 C7.8125 18.25 -0.4375 18.25 -8.9375 18.25 C-8.6075 19.9 -8.2775 21.55 -7.9375 23.25 C-3.84126402 25.85669562 0.37642824 25.69629255 5.0625 25.25 C7.29227996 23.27098426 7.29227996 23.27098426 9.0625 21.25 C11.46038436 21.46157803 12.91834361 22.17792181 15.0625 23.25 C14.51643377 27.07246363 13.03670582 28.83848176 10.0625 31.25 C3.90883575 34.25527789 -1.89271667 33.24540993 -8.1875 31.1875 C-12.02239469 28.48564238 -14.22195201 25.62354295 -15.9375 21.25 C-16.71719783 15.96091578 -16.49365782 11.04279592 -13.9375 6.25 C-13.2775 6.25 -12.6175 6.25 -11.9375 6.25 C-11.669375 5.63125 -11.40125 5.0125 -11.125 4.375 C-8.46913095 -0.37760777 -4.9388696 -0.02072978 0 0 Z M-8.9375 10.25 C-8.9375 11.24 -8.9375 12.23 -8.9375 13.25 C-2.9975 13.25 2.9425 13.25 9.0625 13.25 C7.74952878 7.26461763 7.74952878 7.26461763 4.0625 5.25 C-2.23343128 4.53916905 -4.94192829 4.88095052 -8.9375 10.25 Z " fill="#CDCDCD" transform="translate(414.9375,226.75)"/>
<path d="M0 0 C4.58845829 4.91620531 6.1318978 8.92668317 5.9296875 15.5546875 C5.46072717 19.02980383 4.21484559 21.69905238 2.625 24.8125 C1.965 24.8125 1.305 24.8125 0.625 24.8125 C0.625 25.4725 0.625 26.1325 0.625 26.8125 C-5.53937256 30.13726576 -9.49013935 31.50549852 -16.375 29.8125 C-19.875 28.25 -19.875 28.25 -22.375 26.8125 C-22.375 26.1525 -22.375 25.4925 -22.375 24.8125 C-23.035 24.8125 -23.695 24.8125 -24.375 24.8125 C-24.375 24.1525 -24.375 23.4925 -24.375 22.8125 C-25.035 22.8125 -25.695 22.8125 -26.375 22.8125 C-28.49846124 18.56557752 -29.10980088 14.48617537 -28.375 9.8125 C-27.27218758 6.9979309 -25.92087074 4.40735446 -24.375 1.8125 C-23.715 1.8125 -23.055 1.8125 -22.375 1.8125 C-22.375 1.1525 -22.375 0.4925 -22.375 -0.1875 C-15.77911688 -3.99281718 -6.28153118 -4.85959253 0 0 Z M-19.375 6.8125 C-21.84251239 10.51376859 -21.68221156 12.43473532 -21.375 16.8125 C-20.49435073 19.16619807 -20.49435073 19.16619807 -19.375 20.8125 C-18.715 20.8125 -18.055 20.8125 -17.375 20.8125 C-17.375 21.4725 -17.375 22.1325 -17.375 22.8125 C-14.19745725 24.40127137 -10.84105757 24.08758393 -7.375 23.8125 C-3.9546134 22.64236774 -3.45959518 21.93939277 -1.375 18.8125 C-0.82906072 15.42192974 -0.82349222 12.20265077 -1.375 8.8125 C-3.62557567 5.72451326 -3.62557567 5.72451326 -6.375 3.8125 C-6.705 3.4825 -7.035 3.1525 -7.375 2.8125 C-12.88252216 2.28293056 -15.44688514 2.88438514 -19.375 6.8125 Z " fill="#CDCDCD" transform="translate(292.375,229.1875)"/>
<path d="M0 0 C2.31 0 4.62 0 7 0 C7.33 0.66 7.66 1.32 8 2 C8.66 1.34 9.32 0.68 10 0 C13.08203125 -0.40625 13.08203125 -0.40625 16.8125 -0.5 C18.64748047 -0.57734375 18.64748047 -0.57734375 20.51953125 -0.65625 C24.14612446 0.02755209 25.93308712 0.84422759 28.11743164 3.87402344 C30.0846555 8.61277457 29.49714351 13.84133391 29.3125 18.875 C29.28994141 20.0403125 29.26738281 21.205625 29.24414062 22.40625 C29.18541297 25.27215945 29.10332875 28.13540922 29 31 C26.69 31 24.38 31 22 31 C21.98018066 30.31373535 21.96036133 29.6274707 21.93994141 28.92041016 C21.84489055 25.82154221 21.73513153 22.72336706 21.625 19.625 C21.5940625 18.54476562 21.563125 17.46453125 21.53125 16.3515625 C21.49257812 15.3203125 21.45390625 14.2890625 21.4140625 13.2265625 C21.36693115 11.79691162 21.36693115 11.79691162 21.31884766 10.33837891 C21.21444204 7.81104824 21.21444204 7.81104824 19 6 C15.37123787 5.59680421 12.97592405 5.39485713 9.8203125 7.3515625 C6.95374097 11.52223954 7.32249241 15.8007456 7.25 20.75 C7.22035156 21.73355469 7.19070312 22.71710938 7.16015625 23.73046875 C7.08957589 26.15372776 7.03682299 28.57603154 7 31 C4.69 31 2.38 31 0 31 C0 20.77 0 10.54 0 0 Z " fill="#BFBFBF" transform="translate(201,227)"/>
<path d="M0 0 C1.22589844 -0.02835938 2.45179688 -0.05671875 3.71484375 -0.0859375 C7.57120319 0.44504315 8.69495809 1.37255337 11.0625 4.375 C9.7425 5.695 8.4225 7.015 7.0625 8.375 C6.546875 8.065625 6.03125 7.75625 5.5 7.4375 C2.39584577 6.08440713 -0.58865007 5.76140576 -3.9375 5.375 C-3.6075 7.025 -3.2775 8.675 -2.9375 10.375 C-2.27363281 10.53355469 -1.60976563 10.69210938 -0.92578125 10.85546875 C8.8416411 13.43634969 8.8416411 13.43634969 12.0625 18.375 C12.68403795 21.50508752 12.69524615 24.2464218 12.0625 27.375 C9.69473256 30.79510852 7.04334759 32.28931429 3.0625 33.375 C-2.62128651 33.82609417 -5.98847102 33.48252982 -10.9375 30.375 C-12.8125 28.6875 -12.8125 28.6875 -13.9375 27.375 C-13.4425 25.89 -13.4425 25.89 -12.9375 24.375 C-10.5625 23.75 -10.5625 23.75 -7.9375 23.375 C-7.2775 24.035 -6.6175 24.695 -5.9375 25.375 C-2.01249282 26.1745385 1.23653486 26.75234745 5.0625 25.375 C5.0625 23.725 5.0625 22.075 5.0625 20.375 C4.32644531 20.20484375 3.59039062 20.0346875 2.83203125 19.859375 C-7.71706691 17.23951971 -7.71706691 17.23951971 -10.9375 13.375 C-11.87355213 9.88040538 -12.3117539 7.52894952 -11.1875 4.0625 C-8.09790273 -0.10845631 -4.83139708 0.05069672 0 0 Z " fill="#C7C7C7" transform="translate(313.9375,226.625)"/>
<path d="M0 0 C1.98 0 3.96 0 6 0 C7.12598637 2.56207058 8.25081988 5.12463699 9.375 7.6875 C9.69210938 8.40873047 10.00921875 9.12996094 10.3359375 9.87304688 C11.95202801 13.55975335 13.53536298 17.24964156 15 21 C17.4443136 16.32018351 19.43898841 11.42792515 21.52148438 6.58007812 C23.89297129 1.10702871 23.89297129 1.10702871 25 0 C26.99958364 -0.04080783 29.00045254 -0.04254356 31 0 C30.32510673 4.06452577 29.07017831 7.67040762 27.5625 11.5 C26.91474609 13.15515625 26.91474609 13.15515625 26.25390625 14.84375 C25.17317865 17.56408614 24.08973667 20.28326115 23 23 C22.34 23 21.68 23 21 23 C20.855625 23.94875 20.71125 24.8975 20.5625 25.875 C20 29 20 29 19 31 C16.36 31 13.72 31 11 31 C10.68546875 30.16597656 10.3709375 29.33195312 10.046875 28.47265625 C7.54314767 21.88905998 4.91618258 15.41022623 2 9 C0.41447059 5.43255883 0 4.02141168 0 0 Z " fill="#CACACA" transform="translate(233,227)"/>
<path d="M0 0 C0.99 0 1.98 0 3 0 C3 0.99 3 1.98 3 3 C3.66 3 4.32 3 5 3 C4.34 5.64 3.68 8.28 3 11 C3.66 11 4.32 11 5 11 C5 11.99 5 12.98 5 14 C2.525 13.505 2.525 13.505 0 13 C0 10.36 0 7.72 0 5 C-0.66 5 -1.32 5 -2 5 C-2 7.64 -2 10.28 -2 13 C-7.38197425 14.22317597 -7.38197425 14.22317597 -10.25 13.1875 C-12 12 -12 12 -14 10 C-14.99 11.485 -14.99 11.485 -16 13 C-17.9375 12.6875 -17.9375 12.6875 -20 12 C-20.33 11.01 -20.66 10.02 -21 9 C-21.391875 9.639375 -21.78375 10.27875 -22.1875 10.9375 C-24.41785583 13.47549112 -25.67842984 13.75088224 -29 14 C-29.99 13.67 -30.98 13.34 -32 13 C-32.33 12.34 -32.66 11.68 -33 11 C-33.99 11.99 -34.98 12.98 -36 14 C-37 13 -37 13 -37.09765625 11.15234375 C-37.06510417 9.1015625 -37.03255208 7.05078125 -37 5 C-37.99 5.495 -37.99 5.495 -39 6 C-39.40729228 8.32156597 -39.74438677 10.6568787 -40 13 C-40.99 13 -41.98 13 -43 13 C-43 9.7 -43 6.4 -43 3 C-40.03 3 -37.06 3 -34 3 C-33.67 3.66 -33.34 4.32 -33 5 C-32.67 4.34 -32.34 3.68 -32 3 C-29.87561661 2.91921359 -27.7503677 2.86090859 -25.625 2.8125 C-24.44164062 2.77769531 -23.25828125 2.74289062 -22.0390625 2.70703125 C-20.53472656 2.85205078 -20.53472656 2.85205078 -19 3 C-18.01 4.485 -18.01 4.485 -17 6 C-16.67 5.01 -16.34 4.02 -16 3 C-10.72 3 -5.44 3 0 3 C0 2.01 0 1.02 0 0 Z M-8 5 C-8.66 6.32 -9.32 7.64 -10 9 C-8.515 9.99 -8.515 9.99 -7 11 C-6.34 9.68 -5.68 8.36 -5 7 C-5.99 6.34 -6.98 5.68 -8 5 Z M-28 5 C-28.99 5.495 -28.99 5.495 -30 6 C-29.67 7.32 -29.34 8.64 -29 10 C-28.01 10 -27.02 10 -26 10 C-26 8.68 -26 7.36 -26 6 C-26.66 5.67 -27.32 5.34 -28 5 Z " fill="#A6A6A6" transform="translate(315,278)"/>
<path d="M0 0 C1.65 0 3.3 0 5 0 C5 0.99 5 1.98 5 3 C4.01 3.33 3.02 3.66 2 4 C1.67 4.99 1.34 5.98 1 7 C1.99 7 2.98 7 4 7 C4 7.66 4 8.32 4 9 C3.01 9 2.02 9 1 9 C1 11.64 1 14.28 1 17 C0.34 17 -0.32 17 -1 17 C-1 14.36 -1 11.72 -1 9 C-2.65 9.33 -4.3 9.66 -6 10 C-4.68 10.66 -3.36 11.32 -2 12 C-2.33 13.65 -2.66 15.3 -3 17 C-6.98196457 18.05404945 -9.98195309 17.84098656 -14 17 C-14.33 14.69 -14.66 12.38 -15 10 C-15.66 10 -16.32 10 -17 10 C-17.33 12.31 -17.66 14.62 -18 17 C-19.74714233 17.25002209 -21.49799141 17.47423194 -23.25 17.6875 C-24.22453125 17.81511719 -25.1990625 17.94273437 -26.203125 18.07421875 C-29.52442355 17.98608373 -30.7128319 17.37347633 -33 15 C-33.25 11.8125 -33.25 11.8125 -33 9 C-33.99 9.495 -33.99 9.495 -35 10 C-35.40729228 12.32156597 -35.74438677 14.6568787 -36 17 C-36.99 17 -37.98 17 -39 17 C-39 13.7 -39 10.4 -39 7 C-26.33333333 7 -13.66666667 7 -1 7 C-0.67 4.69 -0.34 2.38 0 0 Z M-30 10 C-29.67 11.32 -29.34 12.64 -29 14 C-28.01 14 -27.02 14 -26 14 C-26.33 12.35 -26.66 10.7 -27 9 C-28.2236068 8.9254644 -28.2236068 8.9254644 -30 10 Z M-11 11 C-11.33 12.32 -11.66 13.64 -12 15 C-11.01 14.01 -10.02 13.02 -9 12 C-9.66 11.67 -10.32 11.34 -11 11 Z M-9 13 C-8.67 13.66 -8.34 14.32 -8 15 C-7.34 14.67 -6.68 14.34 -6 14 C-6.99 13.67 -7.98 13.34 -9 13 Z " fill="#B3B5B4" transform="translate(389,274)"/>
<path d="M0 0 C1.7325 0.061875 1.7325 0.061875 3.5 0.125 C4.16 0.125 4.82 0.125 5.5 0.125 C13.16666667 0.125 20.83333333 0.125 28.5 0.125 C29.16 2.435 29.82 4.745 30.5 7.125 C31.49 7.125 32.48 7.125 33.5 7.125 C33.17 8.445 32.84 9.765 32.5 11.125 C30.19 10.795 27.88 10.465 25.5 10.125 C25.17 7.815 24.84 5.505 24.5 3.125 C23.84 5.435 23.18 7.745 22.5 10.125 C21.51 10.125 20.52 10.125 19.5 10.125 C19.17 7.815 18.84 5.505 18.5 3.125 C18.231875 4.259375 17.96375 5.39375 17.6875 6.5625 C17.295625 7.738125 16.90375 8.91375 16.5 10.125 C15.51 10.455 14.52 10.785 13.5 11.125 C12.5 10.125 12.5 10.125 12.40234375 8.27734375 C12.43489583 6.2265625 12.46744792 4.17578125 12.5 2.125 C11.51 2.62 11.51 2.62 10.5 3.125 C10.335 4.28 10.17 5.435 10 6.625 C9.835 7.78 9.67 8.935 9.5 10.125 C8.51 10.62 8.51 10.62 7.5 11.125 C6.51 10.465 5.52 9.805 4.5 9.125 C3.51 9.785 2.52 10.445 1.5 11.125 C-1.82240324 10.8008631 -3.10776303 10.51723697 -5.5 8.125 C-5.75 5.125 -5.75 5.125 -5.5 2.125 C-3.5 0.125 -3.5 0.125 0 0 Z M-0.5 2.125 C-1.49 2.62 -1.49 2.62 -2.5 3.125 C-2.15213292 5.10036745 -2.15213292 5.10036745 -1.5 7.125 C-0.84 7.455 -0.18 7.785 0.5 8.125 C1.16 7.795 1.82 7.465 2.5 7.125 C2.5 5.805 2.5 4.485 2.5 3.125 C1.51 2.795 0.52 2.465 -0.5 2.125 Z " fill="#5E5F5E" transform="translate(398.5,280.875)"/>
<path d="M0 0 C1.98 0 3.96 0 6 0 C6.33 0.66 6.66 1.32 7 2 C7.66 1.34 8.32 0.68 9 0 C11.1640625 -0.1953125 11.1640625 -0.1953125 13.625 -0.125 C14.85089844 -0.09792969 14.85089844 -0.09792969 16.1015625 -0.0703125 C17.04128906 -0.03550781 17.04128906 -0.03550781 18 0 C17.67 1.98 17.34 3.96 17 6 C16.01 6 15.02 6 14 6 C10.32182683 7.0397623 10.32182683 7.0397623 7.87353516 9.79394531 C6.93284271 12.16960126 6.6891635 14.00063378 6.5859375 16.546875 C6.54726563 17.39121094 6.50859375 18.23554688 6.46875 19.10546875 C6.42234375 20.41451172 6.42234375 20.41451172 6.375 21.75 C6.33632813 22.63816406 6.29765625 23.52632812 6.2578125 24.44140625 C6.16379127 26.6273998 6.07813857 28.81339062 6 31 C4.02 31 2.04 31 0 31 C0 20.77 0 10.54 0 0 Z " fill="#C7C7C7" transform="translate(381,227)"/>
<path d="M0 0 C6 0 12 0 18 0 C18 0.99 18 1.98 18 3 C17.01 3 16.02 3 15 3 C15.99 3.33 16.98 3.66 18 4 C18.33 2.68 18.66 1.36 19 0 C22.3 0 25.6 0 29 0 C30.125 6.625 30.125 6.625 29 10 C24.25 11.125 24.25 11.125 22 10 C22 11.32 22 12.64 22 14 C21.01 14 20.02 14 19 14 C18.67 12.68 18.34 11.36 18 10 C16.9790625 10.2784375 16.9790625 10.2784375 15.9375 10.5625 C12.42767809 11.08523943 9.47811937 10.61378577 6 10 C6 7.36 6 4.72 6 2 C5.01 2.495 5.01 2.495 4 3 C3.59270772 5.32156597 3.25561323 7.6568787 3 10 C2.01 10 1.02 10 0 10 C0 6.7 0 3.4 0 0 Z M24 2 C23.34 3.32 22.68 4.64 22 6 C23.485 6.99 23.485 6.99 25 8 C25.66 7.34 26.32 6.68 27 6 C27 5.01 27 4.02 27 3 C26.01 2.67 25.02 2.34 24 2 Z M10 4 C10.33 4.99 10.66 5.98 11 7 C11 6.01 11 5.02 11 4 C10.67 4 10.34 4 10 4 Z M13 6 C13 6.66 13 7.32 13 8 C13.66 7.67 14.32 7.34 15 7 C14.34 6.67 13.68 6.34 13 6 Z " fill="#7D7E7E" transform="translate(193,281)"/>
<path d="M0 0 C1.74965358 -0.05429959 3.49979787 -0.09292823 5.25 -0.125 C6.22453125 -0.14820313 7.1990625 -0.17140625 8.203125 -0.1953125 C11.08170091 0.00570537 12.61784582 0.40838371 15 2 C17.29755922 5.44633882 17.23643976 6.71068391 17.1953125 10.76171875 C17.18886719 11.87998047 17.18242187 12.99824219 17.17578125 14.15039062 C17.15902344 15.31763672 17.14226562 16.48488281 17.125 17.6875 C17.11597656 18.86634766 17.10695312 20.04519531 17.09765625 21.25976562 C17.07406423 24.17338026 17.0411454 27.08658892 17 30 C14.69 30 12.38 30 10 30 C9.98018066 29.32420898 9.96036133 28.64841797 9.93994141 27.95214844 C9.84456762 24.88437956 9.73493835 21.81728002 9.625 18.75 C9.5940625 17.68652344 9.563125 16.62304688 9.53125 15.52734375 C9.49257812 14.50253906 9.45390625 13.47773438 9.4140625 12.421875 C9.3826416 11.47924805 9.3512207 10.53662109 9.31884766 9.56542969 C8.99399023 6.95164571 8.32323838 5.25646966 7 3 C4.69 3 2.38 3 0 3 C0 2.01 0 1.02 0 0 Z " fill="#D6D6D6" transform="translate(213,228)"/>
<path d="M0 0 C2.31 0 4.62 0 7 0 C7 10.23 7 20.46 7 31 C4.69 31 2.38 31 0 31 C0 20.77 0 10.54 0 0 Z " fill="#B9B9B9" transform="translate(367,227)"/>
<path d="M0 0 C2.31 0 4.62 0 7 0 C7 10.23 7 20.46 7 31 C4.69 31 2.38 31 0 31 C0 20.77 0 10.54 0 0 Z " fill="#D0D0D0" transform="translate(188,227)"/>
<path d="M0 0 C1.98442221 2.32953912 1.99602937 3.95235245 2.25 7 C2.00285406 9.96575126 1.65564155 11.56010719 0 14 C-3.68717438 16.45811625 -5.64345704 16.31118164 -10 16 C-10.99 15.34 -11.98 14.68 -13 14 C-13.3984375 11.50390625 -13.3984375 11.50390625 -13.375 8.5625 C-13.38273437 7.59441406 -13.39046875 6.62632812 -13.3984375 5.62890625 C-13 3 -13 3 -11.6640625 1.21484375 C-7.77804521 -1.62213132 -4.48259803 -1.05952317 0 0 Z " fill="#218C9B" transform="translate(78,203)"/>
<path d="M0 0 C1.8203125 2.03515625 1.8203125 2.03515625 3 5 C2.2967045 7.87930378 1.53372456 10.19137385 0.375 12.875 C0.10042969 13.55691406 -0.17414063 14.23882812 -0.45703125 14.94140625 C-1.28084104 16.97192335 -2.1346922 18.98685501 -3 21 C-3.29100586 21.68223633 -3.58201172 22.36447266 -3.88183594 23.06738281 C-4.58491275 24.71286411 -5.29201787 26.35662329 -6 28 C-7.33333333 25.33333333 -8.66666667 22.66666667 -10 20 C-8.35 20 -6.7 20 -5 20 C-5.99 17.03 -6.98 14.06 -8 11 C-7.34 11 -6.68 11 -6 11 C-6.48484276 6.35413108 -6.48484276 6.35413108 -8 2 C-4.78697711 -0.14201526 -3.73290719 -0.65325876 0 0 Z " fill="#1D818C" transform="translate(164,223)"/>
<path d="M0 0 C0.99 0 1.98 0 3 0 C3 0.99 3 1.98 3 3 C3.66 3 4.32 3 5 3 C4.34 5.64 3.68 8.28 3 11 C3.66 11 4.32 11 5 11 C5 11.99 5 12.98 5 14 C2.525 13.505 2.525 13.505 0 13 C0 10.36 0 7.72 0 5 C-0.66 5 -1.32 5 -2 5 C-2 7.64 -2 10.28 -2 13 C-4.94110865 13.66843378 -7.2802935 14.15993478 -10.25 13.5 C-12.95824613 11.17864618 -13.24703211 8.3883555 -14 5 C-12 3 -12 3 -9.1796875 2.8046875 C-8.08914063 2.82789063 -6.99859375 2.85109375 -5.875 2.875 C-4.77929688 2.89304687 -3.68359375 2.91109375 -2.5546875 2.9296875 C-1.71164062 2.95289063 -0.86859375 2.97609375 0 3 C0 2.01 0 1.02 0 0 Z M-8 5 C-8.66 6.32 -9.32 7.64 -10 9 C-8.515 9.99 -8.515 9.99 -7 11 C-6.34 9.68 -5.68 8.36 -5 7 C-5.99 6.34 -6.98 5.68 -8 5 Z " fill="#7E7E7E" transform="translate(315,278)"/>
<path d="M0 0 C5.94 0 11.88 0 18 0 C18 3.3 18 6.6 18 10 C10.76712329 11.3260274 10.76712329 11.3260274 7.5 9.9375 C5.42298853 7.25469352 5.7066162 5.30056781 6 2 C5.01 2.495 5.01 2.495 4 3 C3.59270772 5.32156597 3.25561323 7.6568787 3 10 C2.01 10 1.02 10 0 10 C0 6.7 0 3.4 0 0 Z M9 3 C9.33 4.32 9.66 5.64 10 7 C10.99 7 11.98 7 13 7 C12.67 5.35 12.34 3.7 12 2 C10.7763932 1.9254644 10.7763932 1.9254644 9 3 Z " fill="#979897" transform="translate(350,281)"/>
<path d="M0 0 C0.66 0 1.32 0 2 0 C1.30130124 4.72173269 0.19817903 9.27775349 -1.0625 13.875 C-1.24876953 14.56335938 -1.43503906 15.25171875 -1.62695312 15.9609375 C-2.08205811 17.64132514 -2.54066678 19.32076322 -3 21 C-4.0625 19.1875 -4.0625 19.1875 -5 17 C-4.67 16.01 -4.34 15.02 -4 14 C-4.928125 14.061875 -5.85625 14.12375 -6.8125 14.1875 C-10 14 -10 14 -11.75 12.8125 C-13 11 -13 11 -12.85546875 8.51953125 C-12.63503906 7.62621094 -12.41460937 6.73289063 -12.1875 5.8125 C-11.97480469 4.91144531 -11.76210937 4.01039063 -11.54296875 3.08203125 C-11.36378906 2.39496094 -11.18460938 1.70789063 -11 1 C-10.67 1.66 -10.34 2.32 -10 3 C-9.34 3 -8.68 3 -8 3 C-7.67 3.66 -7.34 4.32 -7 5 C-5.02463255 4.65213292 -5.02463255 4.65213292 -3 4 C-2.67 3.34 -2.34 2.68 -2 2 C-1.67 2.33 -1.34 2.66 -1 3 C-0.67 2.01 -0.34 1.02 0 0 Z M-7 10 C-6 12 -6 12 -6 12 Z " fill="#1C7F8D" transform="translate(140,226)"/>
<path d="M0 0 C4.95 0 9.9 0 15 0 C16 7 16 7 15 10 C12.08517222 10.80967438 10.53886783 11.21845993 7.6875 10.0625 C7.130625 9.711875 6.57375 9.36125 6 9 C6 6.69 6 4.38 6 2 C5.01 2.495 5.01 2.495 4 3 C3.59270772 5.32156597 3.25561323 7.6568787 3 10 C2.01 10 1.02 10 0 10 C0 6.7 0 3.4 0 0 Z M10 2 C9.34 2.66 8.68 3.32 8 4 C9.65 4 11.3 4 13 4 C12.01 3.34 11.02 2.68 10 2 Z M9 6 C10.485 6.99 10.485 6.99 12 8 C12.33 7.34 12.66 6.68 13 6 C11.68 6 10.36 6 9 6 Z " fill="#A1A1A1" transform="translate(229,281)"/>
<path d="M0 0 C2.24893954 -0.10823773 4.49937575 -0.18569645 6.75 -0.25 C8.00296875 -0.29640625 9.2559375 -0.3428125 10.546875 -0.390625 C14 0 14 0 16.453125 2.015625 C16.96359375 2.67046875 17.4740625 3.3253125 18 4 C16.68 5.32 15.36 6.64 14 8 C13.484375 7.690625 12.96875 7.38125 12.4375 7.0625 C9.33334577 5.70940713 6.34884993 5.38640576 3 5 C2.34 6.32 1.68 7.64 1 9 C0.01 8.01 -0.98 7.02 -2 6 C-1.34 4.02 -0.68 2.04 0 0 Z " fill="#D2D2D2" transform="translate(307,227)"/>
<path d="M0 0 C0 0.66 0 1.32 0 2 C0.99 2 1.98 2 3 2 C3.33 1.34 3.66 0.68 4 0 C5.65 0 7.3 0 9 0 C8.01 0.66 7.02 1.32 6 2 C5.7497843 5.08365871 5.7497843 5.08365871 6 8 C5.34 8 4.68 8 4 8 C3.67 9.32 3.34 10.64 3 12 C1.02 12 -0.96 12 -3 12 C-5.08466413 8.61242079 -5.42905061 5.94726562 -5 2 C-2 0 -2 0 0 0 Z " fill="#198C9B" transform="translate(96,258)"/>
<path d="M0 0 C2.01822917 0.06510417 4.03645833 0.13020833 6.0546875 0.1953125 C7.1796875 6.8203125 7.1796875 6.8203125 6.0546875 10.1953125 C0.77166863 11.51606722 0.77166863 11.51606722 -2.3203125 10.1328125 C-3.9453125 8.1953125 -3.9453125 8.1953125 -4.3203125 5.1328125 C-3.90475873 1.87764134 -3.47271962 0.34866663 0 0 Z M0.0546875 2.1953125 C-0.2753125 2.8553125 -0.6053125 3.5153125 -0.9453125 4.1953125 C0.7046875 4.1953125 2.3546875 4.1953125 4.0546875 4.1953125 C2.7346875 3.5353125 1.4146875 2.8753125 0.0546875 2.1953125 Z M0.0546875 6.1953125 C0.0546875 6.8553125 0.0546875 7.5153125 0.0546875 8.1953125 C1.3746875 7.8653125 2.6946875 7.5353125 4.0546875 7.1953125 C2.7346875 6.8653125 1.4146875 6.5353125 0.0546875 6.1953125 Z " fill="#C4C4C4" transform="translate(323.9453125,280.8046875)"/>
<path d="M0 0 C3.375 0.25 3.375 0.25 7 1 C8.98442221 3.32953912 8.99602937 4.95235245 9.25 8 C9.00285406 10.96575126 8.65564155 12.56010719 7 15 C3.3558226 17.4294516 1.28758728 17.16179575 -3 17 C-1 14 -1 14 2 12 C2.33 11.01 2.66 10.02 3 9 C2.34 8.01 1.68 7.02 1 6 C2.32 6 3.64 6 5 6 C5 5.34 5 4.68 5 4 C3.35178756 2.96986723 1.68496298 1.96885372 0 1 C0 0.67 0 0.34 0 0 Z " fill="#1A818D" transform="translate(71,202)"/>
<path d="M0 0 C1.7325 0.1546875 1.7325 0.1546875 3.5 0.3125 C5.5 3.3125 5.5 3.3125 5.3125 6.375 C4.5 9.3125 4.5 9.3125 1.5 11.3125 C-1.82240324 10.9883631 -3.10776303 10.70473697 -5.5 8.3125 C-5.75 5.3125 -5.75 5.3125 -5.5 2.3125 C-3.5 0.3125 -3.5 0.3125 0 0 Z M-0.5 2.3125 C-1.49 2.8075 -1.49 2.8075 -2.5 3.3125 C-2.15213292 5.28786745 -2.15213292 5.28786745 -1.5 7.3125 C-0.84 7.6425 -0.18 7.9725 0.5 8.3125 C1.16 7.9825 1.82 7.6525 2.5 7.3125 C2.5 5.9925 2.5 4.6725 2.5 3.3125 C1.51 2.9825 0.52 2.6525 -0.5 2.3125 Z " fill="#AEAEAE" transform="translate(398.5,280.6875)"/>
<path d="M0 0 C6.0546875 -0.1953125 6.0546875 -0.1953125 8 0 C10 2 10 2 10.1953125 3.9453125 C10.13020833 5.96354167 10.06510417 7.98177083 10 10 C9.01 10 8.02 10 7 10 C7 7.69 7 5.38 7 3 C6.01 3 5.02 3 4 3 C3.67 5.31 3.34 7.62 3 10 C2.01 10.33 1.02 10.66 0 11 C0 7.37 0 3.74 0 0 Z " fill="#C8C8C8" transform="translate(261,281)"/>
<path d="M0 0 C3.63 0 7.26 0 11 0 C11 0.99 11 1.98 11 3 C9.68 3 8.36 3 7 3 C7 6.96 7 10.92 7 15 C6.01 15 5.02 15 4 15 C4 11.04 4 7.08 4 3 C2.68 3 1.36 3 0 3 C0 2.01 0 1.02 0 0 Z " fill="#9E9E9E" transform="translate(341,276)"/>
<path d="M0 0 C2.97 0 5.94 0 9 0 C9 3.3 9 6.6 9 10 C8.01 10 7.02 10 6 10 C6 7.36 6 4.72 6 2 C5.01 2.495 5.01 2.495 4 3 C3.59270772 5.32156597 3.25561323 7.6568787 3 10 C2.01 10 1.02 10 0 10 C0 6.7 0 3.4 0 0 Z " fill="#BFC1C0" transform="translate(193,281)"/>
<path d="M0 0 C2.5 0.25 2.5 0.25 4.5 2.25 C4.8125 4.75 4.8125 4.75 4.5 7.25 C1.5 9.25 1.5 9.25 -1.125 8.9375 C-3.5 8.25 -3.5 8.25 -4.5 7.25 C-4.6875 4.8125 -4.6875 4.8125 -4.5 2.25 C-2.5 0.25 -2.5 0.25 0 0 Z " fill="#BABABA" transform="translate(370.5,213.75)"/>
<path d="M0 0 C2.5625 0.1875 2.5625 0.1875 4.5625 2.1875 C4.1875 5.3125 4.1875 5.3125 3.5625 8.1875 C1.25 8.875 1.25 8.875 -1.4375 9.1875 C-3.3125 8.0625 -3.3125 8.0625 -4.4375 6.1875 C-3.87661439 0.29820111 -3.87661439 0.29820111 0 0 Z " fill="#C2C2C2" transform="translate(191.4375,213.8125)"/>
<path d="M0 0 C2.97 0 5.94 0 9 0 C9.95024979 3.69541586 9.95024979 6.30458414 9 10 C8.34 10 7.68 10 7 10 C6.67 7.69 6.34 5.38 6 3 C5.34 3 4.68 3 4 3 C3.67 5.31 3.34 7.62 3 10 C2.01 10 1.02 10 0 10 C0 6.7 0 3.4 0 0 Z " fill="#BCBEBD" transform="translate(368,281)"/>
<path d="M0 0 C1.32 0 2.64 0 4 0 C4 4.95 4 9.9 4 15 C2.68 15 1.36 15 0 15 C0 10.05 0 5.1 0 0 Z " fill="#9C9C9C" transform="translate(256,276)"/>
<path d="M0 0 C2.64 0 5.28 0 8 0 C8.66 2.31 9.32 4.62 10 7 C10.99 7 11.98 7 13 7 C12.67 8.32 12.34 9.64 12 11 C9.69 10.67 7.38 10.34 5 10 C4.87625 8.3603125 4.87625 8.3603125 4.75 6.6875 C4.36310791 2.96723336 4.36310791 2.96723336 1.9375 1.0625 C1.298125 0.711875 0.65875 0.36125 0 0 Z " fill="#AEAEAE" transform="translate(419,281)"/>
<path d="M0 0 C1.65 0 3.3 0 5 0 C5 0.99 5 1.98 5 3 C4.01 3.33 3.02 3.66 2 4 C1.67 4.99 1.34 5.98 1 7 C1.99 7 2.98 7 4 7 C4 7.66 4 8.32 4 9 C3.01 9 2.02 9 1 9 C1 11.64 1 14.28 1 17 C0.34 17 -0.32 17 -1 17 C-1.93213141 10.73960391 -2.20927172 5.97802937 0 0 Z " fill="#E5E5E5" transform="translate(389,274)"/>
<path d="M0 0 C0.99 0 1.98 0 3 0 C3 0.99 3 1.98 3 3 C3.66 3 4.32 3 5 3 C4.34 5.64 3.68 8.28 3 11 C3.66 11 4.32 11 5 11 C5 11.99 5 12.98 5 14 C3.35 13.67 1.7 13.34 0 13 C0 8.71 0 4.42 0 0 Z " fill="#D5D5D5" transform="translate(315,278)"/>
<path d="M0 0 C0.66666667 2 1.33333333 4 2 6 C1.01 7.485 1.01 7.485 0 9 C0.33 9.5775 0.66 10.155 1 10.75 C2 13 2 13 2 17 C0.35 17 -1.3 17 -3 17 C-2.814375 15.9275 -2.62875 14.855 -2.4375 13.75 C-1.77589326 10.24543072 -1.77589326 10.24543072 -2.625 7.9375 C-3.23593853 4.78098424 -1.52910375 2.69122259 0 0 Z " fill="#1E8D9E" transform="translate(157,226)"/>
<path d="M0 0 C0.99 0 1.98 0 3 0 C3 4.95 3 9.9 3 15 C2.01 15 1.02 15 0 15 C0 10.05 0 5.1 0 0 Z " fill="#9C9C9C" transform="translate(188,276)"/>
<path d="M0 0 C2.64 0.99 5.28 1.98 8 3 C4.01754386 6.98245614 4.01754386 6.98245614 -0.625 7.0625 C-1.73875 7.041875 -2.8525 7.02125 -4 7 C-4.33 6.34 -4.66 5.68 -5 5 C-3.68 5 -2.36 5 -1 5 C-0.67 3.35 -0.34 1.7 0 0 Z " fill="#1A707A" transform="translate(127,288)"/>
<path d="M0 0 C2.38419873 0.95367949 3.73467287 1.57989872 5.125 3.78125 C6.11000156 6.27893252 6.20359799 8.0776682 6.125 10.75 C6.10695312 11.54921875 6.08890625 12.3484375 6.0703125 13.171875 C6.03550781 14.07679688 6.03550781 14.07679688 6 15 C5.01 15.495 5.01 15.495 4 16 C2.67770811 13.35541621 2.90322806 11.32238699 2.9375 8.375 C2.94652344 7.37210938 2.95554688 6.36921875 2.96484375 5.3359375 C2.98224609 4.17964844 2.98224609 4.17964844 3 3 C2.34 3 1.68 3 1 3 C0.67 2.01 0.34 1.02 0 0 Z " fill="#207176" transform="translate(140,198)"/>
<path d="M0 0 C2.4658719 3.69880785 2.39803736 6.28702757 2.65625 10.625 C2.86422231 13.26194296 2.86422231 13.26194296 5 16 C5 16.99 5 17.98 5 19 C4.34 19 3.68 19 3 19 C-0.19865751 14.94939981 -0.3292702 11.74397061 -0.1875 6.6875 C-0.14689453 4.80611328 -0.14689453 4.80611328 -0.10546875 2.88671875 C-0.07066406 1.93410156 -0.03585938 0.98148437 0 0 Z " fill="#256A73" transform="translate(117,274)"/>
<path d="M0 0 C1.2065625 0.2475 1.2065625 0.2475 2.4375 0.5 C4.97658116 1.26597109 4.97658116 1.26597109 7 0 C6.67 1.65 6.34 3.3 6 5 C2.62182575 5.84454356 0.32534757 6.10844919 -3 5 C-1.125 1.125 -1.125 1.125 0 0 Z M0 1 C0.33 1.66 0.66 2.32 1 3 C1.66 2.67 2.32 2.34 3 2 C2.01 1.67 1.02 1.34 0 1 Z " fill="#757575" transform="translate(380,286)"/>
<path d="M0 0 C2.64 0 5.28 0 8 0 C9.125 6.625 9.125 6.625 8 10 C6 9 6 9 5 7 C4.01 6.67 3.02 6.34 2 6 C1.67 6.66 1.34 7.32 1 8 C1 7.01 1 6.02 1 5 C3.31 5 5.62 5 8 5 C7.67 3.68 7.34 2.36 7 1 C6.67 1.66 6.34 2.32 6 3 C4.02 2.34 2.04 1.68 0 1 C0 0.67 0 0.34 0 0 Z " fill="#696969" transform="translate(322,281)"/>
<path d="M0 0 C0.66 0 1.32 0 2 0 C0.54955729 4.10958767 -1.51110752 7.43258745 -4 11 C-7 7.25 -7 7.25 -7 5 C-2.61538462 2 -2.61538462 2 0 2 C0 1.34 0 0.68 0 0 Z " fill="#1F7A85" transform="translate(143,277)"/>
<path d="M0 0 C1.125 1.625 1.125 1.625 2 4 C1.125 7.25 1.125 7.25 0 10 C-1.9375 9.6875 -1.9375 9.6875 -4 9 C-5.04187157 5.87438528 -5.23843794 4.95319818 -4 2 C-1.9375 0.75 -1.9375 0.75 0 0 Z " fill="#1C8D9D" transform="translate(125,214)"/>
<path d="M0 0 C0.99 0 1.98 0 3 0 C3 2.97 3 5.94 3 9 C0.08517222 9.80967438 -1.46113217 10.21845993 -4.3125 9.0625 C-4.869375 8.711875 -5.42625 8.36125 -6 8 C-6 6.35 -6 4.7 -6 3 C-5.67 3.99 -5.34 4.98 -5 6 C-3.02 6 -1.04 6 1 6 C0.67 4.02 0.34 2.04 0 0 Z " fill="#D7D7D7" transform="translate(309,282)"/>
<path d="M0 0 C1 2 1 2 0.5 4.25 C-0.07786542 7.4282598 0.34258069 9.85899662 1 13 C-2 13 -2 13 -5 11 C-3.35 7.37 -1.7 3.74 0 0 Z " fill="#1F7B85" transform="translate(155,227)"/>
<path d="M0 0 C0.99 0 1.98 0 3 0 C2.34 2.97 1.68 5.94 1 9 C-0.32 9.33 -1.64 9.66 -3 10 C-3 8.35 -3 6.7 -3 5 C-2.34 5 -1.68 5 -1 5 C-0.67 3.35 -0.34 1.7 0 0 Z " fill="#B6B7B6" transform="translate(299,281)"/>
<path d="M0 0 C2.64 0 5.28 0 8 0 C7.67 1.65 7.34 3.3 7 5 C4.6875 5.625 4.6875 5.625 2 6 C1.01 5.34 0.02 4.68 -1 4 C-0.34 3.67 0.32 3.34 1 3 C0.67 2.01 0.34 1.02 0 0 Z M1 1 C2.485 1.99 2.485 1.99 4 3 C4.33 2.34 4.66 1.68 5 1 C3.68 1 2.36 1 1 1 Z " fill="#757575" transform="translate(237,286)"/>
<path d="M0 0 C1.32 0.33 2.64 0.66 4 1 C2.52307692 7.52307692 2.52307692 7.52307692 -0.125 9.9375 C-0.74375 10.288125 -1.3625 10.63875 -2 11 C-1 3.57142857 -1 3.57142857 0 0 Z " fill="#207C82" transform="translate(132,216)"/>
<path d="M0 0 C0.66 0 1.32 0 2 0 C2.20086443 3.71599191 2.1519437 4.77208445 0 8 C-0.66 8 -1.32 8 -2 8 C-2 8.66 -2 9.32 -2 10 C-3.32 10.33 -4.64 10.66 -6 11 C-5.45156876 7.16098132 -3.7234735 5.63836495 -1 3 C-0.67 2.01 -0.34 1.02 0 0 Z " fill="#1C6568" transform="translate(76,246)"/>
<path d="M0 0 C2.64 0 5.28 0 8 0 C8.33 1.65 8.66 3.3 9 5 C6.36 5 3.72 5 1 5 C1.66 4.34 2.32 3.68 3 3 C2.16666667 0.83333333 2.16666667 0.83333333 0 0 Z " fill="#999999" transform="translate(236,281)"/>
<path d="M0 0 C0.99 0 1.98 0 3 0 C3 3.3 3 6.6 3 10 C2.01 10 1.02 10 0 10 C0 6.7 0 3.4 0 0 Z " fill="#9C9C9C" transform="translate(224,281)"/>
<path d="M0 0 C1.32 0 2.64 0 4 0 C4.80967438 2.91482778 5.21845993 4.46113217 4.0625 7.3125 C3.5365625 8.1478125 3.5365625 8.1478125 3 9 C2.67 8.01 2.34 7.02 2 6 C1.34 6.66 0.68 7.32 0 8 C-0.38063221 5.6739143 -0.71269945 3.33944736 -1 1 C-0.67 0.67 -0.34 0.34 0 0 Z " fill="#787878" transform="translate(292,281)"/>
<path d="M0 0 C3.375 0.25 3.375 0.25 7 1 C9.55094982 3.99459327 9.17248345 7.20536415 9 11 C8.34 11 7.68 11 7 11 C6.773125 9.906875 6.54625 8.81375 6.3125 7.6875 C5.35055561 3.87265531 5.35055561 3.87265531 2.375 2.125 C1.59125 1.75375 0.8075 1.3825 0 1 C0 0.67 0 0.34 0 0 Z " fill="#226770" transform="translate(71,202)"/>
<path d="M0 0 C0.7425 0.0825 1.485 0.165 2.25 0.25 C1.20125002 2.87187494 0.60068687 4.04371361 -1.875 5.5 C-2.49375 5.7475 -3.1125 5.995 -3.75 6.25 C-4.74 5.59 -5.73 4.93 -6.75 4.25 C-3.42692308 0.31153846 -3.42692308 0.31153846 0 0 Z " fill="#1F8F9D" transform="translate(134.75,197.75)"/>
<path d="M0 0 C1.32 0 2.64 0 4 0 C3.67 2.97 3.34 5.94 3 9 C2.01 9 1.02 9 0 9 C0 6.03 0 3.06 0 0 Z " fill="#CDCECD" transform="translate(405,282)"/>
<path d="M0 0 C-1.19899698 3.0831351 -2.47700477 6.06279492 -4 9 C-4.66 9 -5.32 9 -6 9 C-6.33 9.66 -6.66 10.32 -7 11 C-7 10.01 -7 9.02 -7 8 C-6.34 8 -5.68 8 -5 8 C-5.33 6.02 -5.66 4.04 -6 2 C-2.25 0 -2.25 0 0 0 Z " fill="#20767E" transform="translate(107,258)"/>
<path d="M0 0 C0.99 0.33 1.98 0.66 3 1 C2.67 2.98 2.34 4.96 2 7 C1.01 7 0.02 7 -1 7 C-1.33 8.32 -1.66 9.64 -2 11 C-2.66 10.67 -3.32 10.34 -4 10 C-2.8905928 6.51329166 -1.73662334 3.22515763 0 0 Z " fill="#237A85" transform="translate(82,235)"/>
<path d="M0 0 C1.32 0 2.64 0 4 0 C4 2.97 4 5.94 4 9 C2.68 8.67 1.36 8.34 0 8 C0 5.36 0 2.72 0 0 Z " fill="#CDCFCE" transform="translate(362,282)"/>
<path d="M0 0 C1 2 1 2 0.25 5.5 C-1 9 -1 9 -4 11 C-4.66 10.67 -5.32 10.34 -6 10 C-4.6302836 6.00499382 -2.74277578 3.19990508 0 0 Z " fill="#216F7E" transform="translate(92,219)"/>
<path d="M0 0 C-0.33 3.63 -0.66 7.26 -1 11 C-2.49403054 8.01193893 -3.79310745 5.10343799 -5 2 C-2 0 -2 0 0 0 Z " fill="#26909E" transform="translate(71,247)"/>
<path d="M0 0 C1.9375 2.25 1.9375 2.25 3 5 C2.1875 7.3125 2.1875 7.3125 1 9 C0.67 7.02 0.34 5.04 0 3 C-1.32 3 -2.64 3 -4 3 C-4.66 3.66 -5.32 4.32 -6 5 C-6.66 4.67 -7.32 4.34 -8 4 C-8 3.34 -8 2.68 -8 2 C-4.78697711 -0.14201526 -3.73290719 -0.65325876 0 0 Z " fill="#1A565E" transform="translate(164,223)"/>
<path d="M0 0 C0.99 0 1.98 0 3 0 C3 2.97 3 5.94 3 9 C2.01 9 1.02 9 0 9 C0 6.03 0 3.06 0 0 Z " fill="#B7B7B7" transform="translate(272,282)"/>
<path d="M0 0 C0.33 0.99 0.66 1.98 1 3 C1.66 2.34 2.32 1.68 3 1 C2.34 4.3 1.68 7.6 1 11 C0.01 11 -0.98 11 -2 11 C-1.34 9.35 -0.68 7.7 0 6 C-1.32 6.33 -2.64 6.66 -4 7 C-4 6.34 -4 5.68 -4 5 C-3.01 5 -2.02 5 -1 5 C-0.67 3.35 -0.34 1.7 0 0 Z " fill="#16767F" transform="translate(105,239)"/>
<path d="M0 0 C1.31224604 5.24898417 0.00646316 7.25804454 -2.625 11.8125 C-3.07875 12.534375 -3.5325 13.25625 -4 14 C-4.66 13.67 -5.32 13.34 -6 13 C-4.02 8.71 -2.04 4.42 0 0 Z " fill="#267780" transform="translate(113,223)"/>
<path d="M0 0 C0.33 0.99 0.66 1.98 1 3 C0.01 4.485 0.01 4.485 -1 6 C-0.67 6.99 -0.34 7.98 0 9 C-0.4375 11.6875 -0.4375 11.6875 -1 14 C-1.66 14 -2.32 14 -3 14 C-3.08114106 12.22992286 -3.13925505 10.45877902 -3.1875 8.6875 C-3.22230469 7.70136719 -3.25710937 6.71523437 -3.29296875 5.69921875 C-3 3 -3 3 -1.48828125 1.14453125 C-0.99714844 0.76683594 -0.50601563 0.38914063 0 0 Z " fill="#23757D" transform="translate(68,203)"/>
<path d="M0 0 C1.32 0 2.64 0 4 0 C3.375 7.625 3.375 7.625 0 11 C0 7.37 0 3.74 0 0 Z " fill="#E7E7E7" transform="translate(213,282)"/>
<path d="M0 0 C0.99 0.33 1.98 0.66 3 1 C3.80967438 3.91482778 4.21845993 5.46113217 3.0625 8.3125 C2.5365625 9.1478125 2.5365625 9.1478125 2 10 C-0.4294516 6.3558226 -0.16179575 4.28758728 0 0 Z " fill="#1F8BA0" transform="translate(139,265)"/>
<path d="M0 0 C0.99 0.33 1.98 0.66 3 1 C3 1.99 3 2.98 3 4 C2.34 4 1.68 4 1 4 C0.67 5.32 0.34 6.64 0 8 C-1.98 8 -3.96 8 -6 8 C-4.68 7.34 -3.36 6.68 -2 6 C-2 5.01 -2 4.02 -2 3 C-1.34 2.01 -0.68 1.02 0 0 Z " fill="#26909D" transform="translate(99,262)"/>
<path d="M0 0 C0.66 0.99 1.32 1.98 2 3 C1.15955106 6.43183318 0.51471866 8.48528134 -2 11 C-3.25 9.4375 -3.25 9.4375 -4 7 C-2.93237266 4.42998985 -1.53455057 2.3469597 0 0 Z " fill="#1E7E89" transform="translate(113,239)"/>
<path d="M0 0 C1.67542976 0.28604898 3.34385343 0.61781233 5 1 C4.34 2.32 3.68 3.64 3 5 C2.01 5 1.02 5 0 5 C-0.5625 3.0625 -0.5625 3.0625 -1 1 C-0.67 0.67 -0.34 0.34 0 0 Z " fill="#1D8E9D" transform="translate(160,225)"/>
<path d="M0 0 C3 3.75 3 3.75 3 6 C4.32 6.33 5.64 6.66 7 7 C3.71303767 7.79953138 2.28976808 8.09658936 -1 7 C-1.33 6.01 -1.66 5.02 -2 4 C-1.34 4 -0.68 4 0 4 C0 2.68 0 1.36 0 0 Z " fill="#838383" transform="translate(284,284)"/>
<path d="M0 0 C0.99 0 1.98 0 3 0 C3 2.64 3 5.28 3 8 C2.01 8 1.02 8 0 8 C0 5.36 0 2.72 0 0 Z " fill="#B1B1B1" transform="translate(418,283)"/>
<path d="M0 0 C-0.53069061 3.82097239 -1.49701566 6.06171403 -4 9 C-4 7.68 -4 6.36 -4 5 C-4.66 4.67 -5.32 4.34 -6 4 C-2.25 0 -2.25 0 0 0 Z " fill="#1F7A87" transform="translate(85,249)"/>
<path d="M0 0 C2 2 2 2 2.125 4.625 C2.08375 5.40875 2.0425 6.1925 2 7 C1.34 7 0.68 7 0 7 C0 6.01 0 5.02 0 4 C-1.98 4.99 -1.98 4.99 -4 6 C-3.67 4.35 -3.34 2.7 -3 1 C-2.01 0.67 -1.02 0.34 0 0 Z " fill="#1E8590" transform="translate(152,238)"/>
<path d="M0 0 C1.98 0.66 3.96 1.32 6 2 C5.67 2.99 5.34 3.98 5 5 C3.35 5 1.7 5 0 5 C-0.5625 3.0625 -0.5625 3.0625 -1 1 C-0.67 0.67 -0.34 0.34 0 0 Z " fill="#188EA1" transform="translate(71,204)"/>
<path d="M0 0 C0.598125 0.61875 1.19625 1.2375 1.8125 1.875 C4.00811144 4.13676954 4.00811144 4.13676954 7 6 C4.6875 6.625 4.6875 6.625 2 7 C1.01 6.34 0.02 5.68 -1 5 C-0.67 3.35 -0.34 1.7 0 0 Z " fill="#9D9E9E" transform="translate(358,285)"/>
<path d="M0 0 C2.31 0 4.62 0 7 0 C7 0.99 7 1.98 7 3 C4.69 3.33 2.38 3.66 0 4 C0 2.68 0 1.36 0 0 Z " fill="#9FA09F" transform="translate(204,281)"/>
<path d="M0 0 C0.66 0 1.32 0 2 0 C0.54955729 4.10958767 -1.51110752 7.43258745 -4 11 C-5 8 -5 8 -4.07421875 5.95703125 C-3.61660156 5.24933594 -3.15898438 4.54164063 -2.6875 3.8125 C-2.23761719 3.09707031 -1.78773438 2.38164062 -1.32421875 1.64453125 C-0.88722656 1.10183594 -0.45023438 0.55914062 0 0 Z " fill="#25727C" transform="translate(130,212)"/>
<path d="M0 0 C0.66 0.33 1.32 0.66 2 1 C1.67 2.65 1.34 4.3 1 6 C-1.31 6 -3.62 6 -6 6 C-4 3 -4 3 -1 1 C-0.67 0.67 -0.34 0.34 0 0 Z " fill="#217984" transform="translate(74,213)"/>
<path d="M0 0 C2.31 0.66 4.62 1.32 7 2 C5.8125 3.5625 5.8125 3.5625 4 5 C1.3125 4.6875 1.3125 4.6875 -1 4 C-0.67 2.68 -0.34 1.36 0 0 Z " fill="#818181" transform="translate(396,287)"/>
<path d="M0 0 C0.33 0.99 0.66 1.98 1 3 C0.67 3.33 0.34 3.66 0 4 C0.66 4.66 1.32 5.32 2 6 C-0.375 6.625 -0.375 6.625 -3 7 C-3.66 6.34 -4.32 5.68 -5 5 C-4.67 4.01 -4.34 3.02 -4 2 C-3.01 2 -2.02 2 -1 2 C-0.67 1.34 -0.34 0.68 0 0 Z " fill="#767676" transform="translate(220,285)"/>
<path d="M0 0 C0.99 0 1.98 0 3 0 C2.88637738 1.4800841 2.75877092 2.95910074 2.625 4.4375 C2.52058594 5.67306641 2.52058594 5.67306641 2.4140625 6.93359375 C2.27742188 7.61550781 2.14078125 8.29742187 2 9 C1.01 9.495 1.01 9.495 0 10 C0 6.7 0 3.4 0 0 Z " fill="#EAEBEB" transform="translate(412,282)"/>
<path d="M0 0 C1.98 0 3.96 0 6 0 C5.67 0.99 5.34 1.98 5 3 C4.01 3 3.02 3 2 3 C1.67 5.31 1.34 7.62 1 10 C0.67 10 0.34 10 0 10 C0 6.7 0 3.4 0 0 Z " fill="#5C5C5C" transform="translate(263,281)"/>
<path d="M0 0 C0.66 0 1.32 0 2 0 C1.979375 0.94875 1.95875 1.8975 1.9375 2.875 C1.77448174 5.90666283 1.77448174 5.90666283 3 8 C1.68 8 0.36 8 -1 8 C-1.04241723 5.66705225 -1.04092937 3.33297433 -1 1 C-0.67 0.67 -0.34 0.34 0 0 Z " fill="#DDDDDD" transform="translate(236,282)"/>
<path d="M0 0 C1.32 0.33 2.64 0.66 4 1 C3.67 3.31 3.34 5.62 3 8 C2.01 7.67 1.02 7.34 0 7 C0.2784375 6.1028125 0.2784375 6.1028125 0.5625 5.1875 C1.22093687 2.83591238 1.22093687 2.83591238 0 0 Z " fill="#D1D1D1" transform="translate(219,282)"/>
<path d="M0 0 C2.31 0 4.62 0 7 0 C4 2 4 2 2 3 C1.59270772 5.32156597 1.25561323 7.6568787 1 10 C0.67 10 0.34 10 0 10 C0 6.7 0 3.4 0 0 Z " fill="#7D7F7E" transform="translate(195,281)"/>
<path d="M0 0 C5.875 0.875 5.875 0.875 7 2 C7.04080783 3.99958364 7.04254356 6.00045254 7 8 C6.938125 7.38125 6.87625 6.7625 6.8125 6.125 C6.18259554 3.72882071 6.18259554 3.72882071 3.5 2.875 C2.675 2.58625 1.85 2.2975 1 2 C0.67 1.34 0.34 0.68 0 0 Z " fill="#2292A0" transform="translate(67,225)"/>
<path d="M0 0 C0.33 0 0.66 0 1 0 C1.33 1.65 1.66 3.3 2 5 C2.99 5 3.98 5 5 5 C4.67 6.32 4.34 7.64 4 9 C2.68 8.67 1.36 8.34 0 8 C0 5.36 0 2.72 0 0 Z " fill="#5C5C5C" transform="translate(427,283)"/>
<path d="M0 0 C0.99 0 1.98 0 3 0 C3.33 1.98 3.66 3.96 4 6 C3.01 6.33 2.02 6.66 1 7 C0.67 4.69 0.34 2.38 0 0 Z " fill="#D7D8D7" transform="translate(400,282)"/>
<path d="M0 0 C2.64 0 5.28 0 8 0 C8.33 0.66 8.66 1.32 9 2 C5.25 3.125 5.25 3.125 3 2 C2.67 2.66 2.34 3.32 2 4 C2 3.01 2 2.02 2 1 C1.34 0.67 0.68 0.34 0 0 Z " fill="#7F8080" transform="translate(379,281)"/>
<path d="M0 0 C1.65 0 3.3 0 5 0 C5 0.99 5 1.98 5 3 C3.02 3.33 1.04 3.66 -1 4 C-0.67 2.68 -0.34 1.36 0 0 Z " fill="#A1A1A1" transform="translate(389,274)"/>
<path d="M0 0 C0.33 0 0.66 0 1 0 C1.14285714 7.42857143 1.14285714 7.42857143 0 11 C-0.66 11 -1.32 11 -2 11 C-2.24042276 6.91281305 -1.42258812 3.82320557 0 0 Z " fill="#1E747C" transform="translate(130,265)"/>
<path d="M0 0 C0.6875 1.6875 0.6875 1.6875 1 4 C-0.3125 6.75 -0.3125 6.75 -2 9 C-2.66 9 -3.32 9 -4 9 C-2.94124926 5.59687262 -1.99097846 2.98646769 0 0 Z " fill="#236571" transform="translate(138,265)"/>
<path d="M0 0 C0.66 0 1.32 0 2 0 C2.125 3.375 2.125 3.375 2 7 C1.34 7.66 0.68 8.32 0 9 C-1.10844919 5.67465243 -0.84454356 3.37817425 0 0 Z " fill="#247B84" transform="translate(123,248)"/>
<path d="M0 0 C1.5 1.25 1.5 1.25 3 3 C3 4.32 3 5.64 3 7 C1.68 7 0.36 7 -1 7 C-0.67 4.69 -0.34 2.38 0 0 Z " fill="#278495" transform="translate(147,244)"/>
<path d="M0 0 C0 1.65 0 3.3 0 5 C-0.66 4.67 -1.32 4.34 -2 4 C-2.66 4.99 -3.32 5.98 -4 7 C-4.6875 5.1875 -4.6875 5.1875 -5 3 C-3.38441968 0.84589291 -2.74502455 0 0 0 Z " fill="#207B88" transform="translate(91,240)"/>
<path d="M0 0 C0.99 0.33 1.98 0.66 3 1 C3 1.66 3 2.32 3 3 C3.66 3 4.32 3 5 3 C4.34 4.32 3.68 5.64 3 7 C1.5 5.75 1.5 5.75 0 4 C0 2.68 0 1.36 0 0 Z " fill="#21909C" transform="translate(138,198)"/>
<path d="M0 0 C0.66 0 1.32 0 2 0 C3.09658936 3.28976808 2.79953138 4.71303767 2 8 C1.34 8 0.68 8 0 8 C0 5.36 0 2.72 0 0 Z " fill="#CDCFCE" transform="translate(375,283)"/>
<path d="M0 0 C2.64 0 5.28 0 8 0 C7.01 1.485 7.01 1.485 6 3 C3.5625 2.625 3.5625 2.625 1 2 C0.67 1.34 0.34 0.68 0 0 Z " fill="#A4A4A4" transform="translate(321,289)"/>
<path d="M0 0 C0.33 0 0.66 0 1 0 C1 2.31 1 4.62 1 7 C2.32 6.67 3.64 6.34 5 6 C5 6.99 5 7.98 5 9 C3.35 8.67 1.7 8.34 0 8 C0 5.36 0 2.72 0 0 Z " fill="#9E9E9E" transform="translate(315,283)"/>
<path d="M0 0 C0.99 0 1.98 0 3 0 C1.25 5.75 1.25 5.75 -1 8 C-1.125 2.25 -1.125 2.25 0 0 Z " fill="#1C6973" transform="translate(154,252)"/>
<path d="M0 0 C0.99 0.33 1.98 0.66 3 1 C3 1.99 3 2.98 3 4 C1.68 4 0.36 4 -1 4 C-0.67 2.68 -0.34 1.36 0 0 Z " fill="#787878" transform="translate(224,276)"/>
<path d="M0 0 C1.485 0.99 1.485 0.99 3 2 C3 2.66 3 3.32 3 4 C2.01 4.33 1.02 4.66 0 5 C-0.5625 3.0625 -0.5625 3.0625 -1 1 C-0.67 0.67 -0.34 0.34 0 0 Z " fill="#949494" transform="translate(247,287)"/>
<path d="M0 0 C1.32 0.33 2.64 0.66 4 1 C3.01 1.99 2.02 2.98 1 4 C0.67 2.68 0.34 1.36 0 0 Z " fill="#999999" transform="translate(332,288)"/>
</svg>
